<mxfile host="app.diagrams.net" agent="Mozilla/5.0 (Macintosh; Intel Mac OS X 10_15_7) AppleWebKit/537.36 (KHTML, like Gecko) Chrome/135.0.0.0 Safari/537.36" version="26.2.14">
  <diagram name="Page-1" id="G3TQJdzssBhrMOMQTJJa">
    <mxGraphModel dx="1793" dy="653" grid="1" gridSize="10" guides="1" tooltips="1" connect="1" arrows="1" fold="1" page="1" pageScale="1" pageWidth="827" pageHeight="1169" math="0" shadow="0">
      <root>
        <mxCell id="0" />
        <mxCell id="1" parent="0" />
        <mxCell id="sIxSZfxyBq3iaSiySbC2-1" value="CameraSwitcher" style="swimlane;fontStyle=1;align=center;verticalAlign=top;childLayout=stackLayout;horizontal=1;startSize=26;horizontalStack=0;resizeParent=1;resizeParentMax=0;resizeLast=0;collapsible=1;marginBottom=0;whiteSpace=wrap;html=1;" vertex="1" parent="1">
          <mxGeometry x="380" y="198" width="260" height="200" as="geometry" />
        </mxCell>
        <mxCell id="sIxSZfxyBq3iaSiySbC2-2" value="+ Cameras: List&amp;lt;CinemachineCamera&amp;gt;&lt;div&gt;+ ActiveCamera: CinemachineCamera&lt;/div&gt;" style="text;strokeColor=default;fillColor=default;align=left;verticalAlign=top;spacingLeft=4;spacingRight=4;overflow=hidden;rotatable=0;points=[[0,0.5],[1,0.5]];portConstraint=eastwest;whiteSpace=wrap;html=1;" vertex="1" parent="sIxSZfxyBq3iaSiySbC2-1">
          <mxGeometry y="26" width="260" height="44" as="geometry" />
        </mxCell>
        <mxCell id="sIxSZfxyBq3iaSiySbC2-3" value="" style="line;strokeWidth=1;fillColor=none;align=left;verticalAlign=middle;spacingTop=-1;spacingLeft=3;spacingRight=3;rotatable=0;labelPosition=right;points=[];portConstraint=eastwest;strokeColor=inherit;" vertex="1" parent="sIxSZfxyBq3iaSiySbC2-1">
          <mxGeometry y="70" width="260" height="8" as="geometry" />
        </mxCell>
        <mxCell id="sIxSZfxyBq3iaSiySbC2-4" value="+ IsActiveCamera(CinemachineCamera camera): Void&lt;div&gt;+ SwitchCamera(CinemachineCamera camera): Void&lt;/div&gt;&lt;div&gt;+ Register(CinemachineCamera camera): Void&lt;/div&gt;&lt;div&gt;+ Unregister(CinemachineCamera camera): Void&lt;/div&gt;" style="text;strokeColor=default;fillColor=default;align=left;verticalAlign=top;spacingLeft=4;spacingRight=4;overflow=hidden;rotatable=0;points=[[0,0.5],[1,0.5]];portConstraint=eastwest;whiteSpace=wrap;html=1;" vertex="1" parent="sIxSZfxyBq3iaSiySbC2-1">
          <mxGeometry y="78" width="260" height="122" as="geometry" />
        </mxCell>
        <mxCell id="sIxSZfxyBq3iaSiySbC2-5" value="CameraControl" style="swimlane;fontStyle=1;align=center;verticalAlign=top;childLayout=stackLayout;horizontal=1;startSize=26;horizontalStack=0;resizeParent=1;resizeParentMax=0;resizeLast=0;collapsible=1;marginBottom=0;whiteSpace=wrap;html=1;" vertex="1" parent="1">
          <mxGeometry x="45" y="100" width="210" height="112" as="geometry" />
        </mxCell>
        <mxCell id="sIxSZfxyBq3iaSiySbC2-6" value="+ cam: CinemachineCamera&lt;div&gt;+ mainCam: Camera&lt;/div&gt;" style="text;strokeColor=default;fillColor=default;align=left;verticalAlign=top;spacingLeft=4;spacingRight=4;overflow=hidden;rotatable=0;points=[[0,0.5],[1,0.5]];portConstraint=eastwest;whiteSpace=wrap;html=1;" vertex="1" parent="sIxSZfxyBq3iaSiySbC2-5">
          <mxGeometry y="26" width="210" height="52" as="geometry" />
        </mxCell>
        <mxCell id="sIxSZfxyBq3iaSiySbC2-7" value="" style="line;strokeWidth=1;fillColor=none;align=left;verticalAlign=middle;spacingTop=-1;spacingLeft=3;spacingRight=3;rotatable=0;labelPosition=right;points=[];portConstraint=eastwest;strokeColor=inherit;" vertex="1" parent="sIxSZfxyBq3iaSiySbC2-5">
          <mxGeometry y="78" width="210" height="8" as="geometry" />
        </mxCell>
        <mxCell id="sIxSZfxyBq3iaSiySbC2-8" value="+ LookUp(float inputY): void" style="text;strokeColor=default;fillColor=default;align=left;verticalAlign=top;spacingLeft=4;spacingRight=4;overflow=hidden;rotatable=0;points=[[0,0.5],[1,0.5]];portConstraint=eastwest;whiteSpace=wrap;html=1;gradientColor=none;" vertex="1" parent="sIxSZfxyBq3iaSiySbC2-5">
          <mxGeometry y="86" width="210" height="26" as="geometry" />
        </mxCell>
        <mxCell id="sIxSZfxyBq3iaSiySbC2-9" value="LookBack" style="swimlane;fontStyle=1;align=center;verticalAlign=top;childLayout=stackLayout;horizontal=1;startSize=26;horizontalStack=0;resizeParent=1;resizeParentMax=0;resizeLast=0;collapsible=1;marginBottom=0;whiteSpace=wrap;html=1;" vertex="1" parent="1">
          <mxGeometry x="20" y="250" width="260" height="110" as="geometry" />
        </mxCell>
        <mxCell id="sIxSZfxyBq3iaSiySbC2-10" value="+ mainView: CinemachineCamera&lt;div&gt;+ behindView: CinemachineCamera&lt;/div&gt;" style="text;strokeColor=default;fillColor=default;align=left;verticalAlign=top;spacingLeft=4;spacingRight=4;overflow=hidden;rotatable=0;points=[[0,0.5],[1,0.5]];portConstraint=eastwest;whiteSpace=wrap;html=1;" vertex="1" parent="sIxSZfxyBq3iaSiySbC2-9">
          <mxGeometry y="26" width="260" height="44" as="geometry" />
        </mxCell>
        <mxCell id="sIxSZfxyBq3iaSiySbC2-11" value="" style="line;strokeWidth=1;fillColor=none;align=left;verticalAlign=middle;spacingTop=-1;spacingLeft=3;spacingRight=3;rotatable=0;labelPosition=right;points=[];portConstraint=eastwest;strokeColor=inherit;" vertex="1" parent="sIxSZfxyBq3iaSiySbC2-9">
          <mxGeometry y="70" width="260" height="8" as="geometry" />
        </mxCell>
        <mxCell id="sIxSZfxyBq3iaSiySbC2-12" value="+ ToggleCamera(): Void" style="text;strokeColor=default;fillColor=default;align=left;verticalAlign=top;spacingLeft=4;spacingRight=4;overflow=hidden;rotatable=0;points=[[0,0.5],[1,0.5]];portConstraint=eastwest;whiteSpace=wrap;html=1;" vertex="1" parent="sIxSZfxyBq3iaSiySbC2-9">
          <mxGeometry y="78" width="260" height="32" as="geometry" />
        </mxCell>
        <mxCell id="sIxSZfxyBq3iaSiySbC2-13" value="«interface»&lt;br&gt;&lt;b&gt;INotify&lt;/b&gt;" style="html=1;whiteSpace=wrap;" vertex="1" parent="1">
          <mxGeometry x="-160" y="280" width="110" height="50" as="geometry" />
        </mxCell>
        <mxCell id="sIxSZfxyBq3iaSiySbC2-14" value="GameManager" style="html=1;whiteSpace=wrap;" vertex="1" parent="1">
          <mxGeometry x="-160" y="400" width="110" height="50" as="geometry" />
        </mxCell>
        <mxCell id="sIxSZfxyBq3iaSiySbC2-15" value="" style="endArrow=block;dashed=1;endFill=0;endSize=12;html=1;rounded=0;exitX=0;exitY=0.5;exitDx=0;exitDy=0;entryX=1;entryY=0.5;entryDx=0;entryDy=0;" edge="1" parent="1" source="sIxSZfxyBq3iaSiySbC2-9" target="sIxSZfxyBq3iaSiySbC2-13">
          <mxGeometry width="160" relative="1" as="geometry">
            <mxPoint x="20" y="340" as="sourcePoint" />
            <mxPoint x="180" y="340" as="targetPoint" />
          </mxGeometry>
        </mxCell>
        <mxCell id="sIxSZfxyBq3iaSiySbC2-16" value="" style="endArrow=diamondThin;endFill=0;endSize=24;html=1;rounded=0;exitX=0.5;exitY=1;exitDx=0;exitDy=0;entryX=0.5;entryY=0;entryDx=0;entryDy=0;" edge="1" parent="1" source="sIxSZfxyBq3iaSiySbC2-13" target="sIxSZfxyBq3iaSiySbC2-14">
          <mxGeometry width="160" relative="1" as="geometry">
            <mxPoint x="20" y="340" as="sourcePoint" />
            <mxPoint x="-180" y="350" as="targetPoint" />
          </mxGeometry>
        </mxCell>
        <mxCell id="sIxSZfxyBq3iaSiySbC2-17" value="" style="endArrow=block;endSize=16;endFill=0;html=1;rounded=0;exitX=0.508;exitY=0.938;exitDx=0;exitDy=0;exitPerimeter=0;entryX=1;entryY=0.5;entryDx=0;entryDy=0;" edge="1" parent="1" source="sIxSZfxyBq3iaSiySbC2-12" target="sIxSZfxyBq3iaSiySbC2-14">
          <mxGeometry width="160" relative="1" as="geometry">
            <mxPoint x="20" y="340" as="sourcePoint" />
            <mxPoint x="180" y="340" as="targetPoint" />
            <Array as="points">
              <mxPoint x="153" y="430" />
            </Array>
          </mxGeometry>
        </mxCell>
        <mxCell id="sIxSZfxyBq3iaSiySbC2-18" value="" style="endArrow=block;endSize=16;endFill=0;html=1;rounded=0;exitX=1;exitY=0.5;exitDx=0;exitDy=0;entryX=0;entryY=0.5;entryDx=0;entryDy=0;" edge="1" parent="1" source="sIxSZfxyBq3iaSiySbC2-10" target="sIxSZfxyBq3iaSiySbC2-1">
          <mxGeometry width="160" relative="1" as="geometry">
            <mxPoint x="162" y="368" as="sourcePoint" />
            <mxPoint x="-40" y="435" as="targetPoint" />
            <Array as="points">
              <mxPoint x="360" y="298" />
            </Array>
          </mxGeometry>
        </mxCell>
        <mxCell id="sIxSZfxyBq3iaSiySbC2-19" value="PlayerShootEggs" style="html=1;whiteSpace=wrap;" vertex="1" parent="1">
          <mxGeometry x="90" y="20" width="110" height="50" as="geometry" />
        </mxCell>
        <mxCell id="sIxSZfxyBq3iaSiySbC2-20" value="AimUI" style="html=1;whiteSpace=wrap;" vertex="1" parent="1">
          <mxGeometry x="-350" y="280" width="110" height="50" as="geometry" />
        </mxCell>
        <mxCell id="sIxSZfxyBq3iaSiySbC2-21" value="" style="endArrow=block;dashed=1;endFill=0;endSize=12;html=1;rounded=0;exitX=0;exitY=0.5;exitDx=0;exitDy=0;entryX=0.5;entryY=0;entryDx=0;entryDy=0;" edge="1" parent="1" source="sIxSZfxyBq3iaSiySbC2-19" target="sIxSZfxyBq3iaSiySbC2-13">
          <mxGeometry width="160" relative="1" as="geometry">
            <mxPoint x="-70" y="340" as="sourcePoint" />
            <mxPoint x="90" y="340" as="targetPoint" />
            <Array as="points">
              <mxPoint x="-110" y="45" />
            </Array>
          </mxGeometry>
        </mxCell>
        <mxCell id="sIxSZfxyBq3iaSiySbC2-22" value="" style="endArrow=block;dashed=1;endFill=0;endSize=12;html=1;rounded=0;exitX=1;exitY=0.5;exitDx=0;exitDy=0;entryX=0;entryY=0.5;entryDx=0;entryDy=0;" edge="1" parent="1" source="sIxSZfxyBq3iaSiySbC2-20" target="sIxSZfxyBq3iaSiySbC2-13">
          <mxGeometry width="160" relative="1" as="geometry">
            <mxPoint x="-70" y="340" as="sourcePoint" />
            <mxPoint x="90" y="340" as="targetPoint" />
          </mxGeometry>
        </mxCell>
        <mxCell id="sIxSZfxyBq3iaSiySbC2-23" value="Player" style="shape=umlFrame;whiteSpace=wrap;html=1;pointerEvents=0;" vertex="1" parent="1">
          <mxGeometry x="-20" width="350" height="380" as="geometry" />
        </mxCell>
      </root>
    </mxGraphModel>
  </diagram>
</mxfile>
